<svg xmlns="http://www.w3.org/2000/svg" viewBox="0 0 110 36" width="110" height="36">
  <rect width="110" height="36" rx="6" fill="#0b111e" stroke="#1e293b" stroke-width="1"/>
  <!-- Java Coffee Cup Icon -->
  <g transform="translate(10, 8)">
    <path d="M4 14c0 2 2 3.5 6 3.5s6-1.5 6-3.5H4z" fill="#3b82f6"/>
    <path d="M16 14.5c2 0 3-1 3-2.5s-1-2-3-2v1c1 0 1.5.5 1.5 1s-.5 1-1.5 1v1.5z" fill="#60a5fa"/>
    <path d="M7 6c0 1.5 1.5 2 1.5 3.5" stroke="#93c5fd" stroke-width="1.2" fill="none" stroke-linecap="round"/>
    <path d="M10 4c0 2 1.5 2.5 1.5 4.5" stroke="#60a5fa" stroke-width="1.2" fill="none" stroke-linecap="round"/>
    <path d="M13 6c0 1.5 1.5 2 1.5 3.5" stroke="#3b82f6" stroke-width="1.2" fill="none" stroke-linecap="round"/>
    <path d="M2 19h16" stroke="#1e293b" stroke-width="1.2" stroke-linecap="round"/>
  </g>
  <text x="36" y="23" font-family="-apple-system, BlinkMacSystemFont, 'Segoe UI', Roboto, sans-serif" font-size="13" font-weight="600" fill="#f8fafc">Java</text>
</svg>
